# xmcd
#
# Track frame offsets:
#	150
#	35130
#	76710
#	109113
#	160943
#	228680
#	262013
#	299890
#
# Disc length: 4757 seconds
#
# Revision: 0
# Processed by: cddbd v1.5.2PL0 Copyright (c) Steve Scherf et al.
# Submitted via: dBpowerAMP V4.0
#
DISCID=73129308
DTITLE=The Joe Moss Band - Drive Time - Live at Chans
DYEAR=1900
DGENRE=Blues
TTITLE0=Black Boots
TTITLE1=I Am Feeling You
TTITLE2=My Life
TTITLE3=Lost My World
TTITLE4=Need Your Love
TTITLE5=Maricela's Smile
TTITLE6=You Made Me So Happy
TTITLE7=Have You Ever Loved a Woman
EXTD=
EXTT0=
EXTT1=
EXTT2=
EXTT3=
EXTT4=
EXTT5=
EXTT6=
EXTT7=
PLAYORDER=
